<?xml version="1.0" standalone="no"?>
<!DOCTYPE svg PUBLIC "-//W3C//DTD SVG 20010904//EN"
 "http://www.w3.org/TR/2001/REC-SVG-20010904/DTD/svg10.dtd">
<svg version="1.0" xmlns="http://www.w3.org/2000/svg"
 width="192.000000pt" height="192.000000pt" viewBox="0 0 192.000000 192.000000"
 preserveAspectRatio="xMidYMid meet">
<metadata>
Created by potrace 1.11, written by Peter Selinger 2001-2013
</metadata>
<g transform="translate(0.000000,192.000000) scale(0.100000,-0.100000)"
fill="#000000" stroke="none">
<path d="M1459 1708 c13 -7 31 -24 39 -38 l16 -25 -24 22 c-50 44 -127 52
-158 18 -6 -8 -7 -11 -1 -6 6 5 24 5 41 0 45 -12 43 -15 -11 -14 -53 0 -90
-16 -109 -46 -12 -19 -12 -19 17 -4 47 24 69 19 31 -7 -44 -30 -68 -65 -76
-110 -4 -28 -3 -38 7 -38 7 0 9 3 6 6 -8 8 23 62 39 68 9 4 9 -4 -2 -29 -17
-41 -19 -119 -3 -110 6 4 8 9 5 12 -6 6 21 63 30 63 3 0 3 -13 0 -30 -2 -16 0
-32 5 -36 5 -3 9 2 9 10 0 29 53 76 93 83 77 12 116 -72 62 -136 -25 -29 -26
-29 -61 -15 -80 33 -152 25 -319 -39 -144 -55 -136 -56 -182 11 -22 31 -45 71
-52 88 -15 37 -60 81 -81 79 -8 0 -31 6 -50 14 -24 10 -74 16 -155 17 -66 1
-154 4 -195 7 -41 3 -89 3 -106 0 l-31 -5 33 -56 c39 -64 40 -76 17 -122 -9
-18 -20 -73 -24 -122 -5 -49 -18 -118 -29 -154 -11 -37 -20 -78 -20 -93 0 -53
95 -120 171 -121 20 0 71 9 114 20 43 11 82 20 86 20 33 0 40 -155 14 -308
-11 -66 -42 -130 -67 -138 -26 -8 -22 -41 5 -50 30 -10 97 -6 112 6 6 5 16 6
20 2 5 -4 5 -2 1 5 -3 6 0 15 8 20 8 4 24 27 36 50 12 24 25 43 29 43 4 0 8 6
8 13 0 10 49 124 58 134 1 2 23 -4 49 -13 l48 -16 -6 -77 c-11 -163 -33 -233
-80 -265 -30 -19 -32 -31 -11 -52 8 -9 15 -12 15 -8 0 5 4 4 10 -2 5 -5 30 -8
55 -6 35 3 53 12 79 37 19 18 37 42 41 54 3 11 11 21 16 21 6 0 8 4 4 9 -3 6
1 13 9 18 8 4 15 13 15 18 2 24 13 45 21 40 4 -3 6 3 3 13 -2 11 2 26 11 34 8
9 13 18 10 20 -2 3 4 26 15 52 11 25 20 47 19 49 -3 7 16 53 26 59 21 14 29 8
14 -9 -22 -26 -31 -44 -21 -42 4 1 13 0 18 -1 23 -6 85 -4 85 3 0 4 6 7 14 7
13 0 56 77 56 102 0 7 22 27 49 45 l49 32 6 -24 c3 -13 3 -30 0 -38 -3 -8 -1
-18 5 -22 21 -13 12 -100 -15 -150 -22 -39 -24 -49 -13 -56 19 -13 97 -3 126
17 22 14 65 94 61 112 -1 4 1 21 5 37 22 92 30 179 30 300 -1 116 -21 202 -57
249 l-25 34 28 12 c46 19 88 71 115 144 29 77 33 133 11 162 -14 18 -15 17
-10 -11 2 -16 1 -36 -4 -43 -5 -8 -8 5 -9 32 -2 54 -14 87 -38 106 -14 12 -16
12 -9 1 12 -21 16 -73 5 -66 -6 3 -10 13 -10 22 0 25 -29 77 -49 90 -19 12
-19 11 -5 -22 22 -52 17 -54 -24 -7 -29 33 -46 44 -77 48 -37 5 -38 5 -16 -8z"/>
<path d="M1270 561 c0 -6 4 -13 10 -16 6 -3 7 1 4 9 -7 18 -14 21 -14 7z"/>
<path d="M710 281 c0 -6 4 -13 10 -16 6 -3 7 1 4 9 -7 18 -14 21 -14 7z"/>
</g>
</svg>
